<svg width="718" height="486" viewBox="0 0 718 486" fill="none" xmlns="http://www.w3.org/2000/svg">
<g filter="url(#filter0_d)">
<path d="M648.657 432.138H636.127V444.709H648.657V432.138Z" fill="#19FF5A"/>
<path d="M636.373 419.567H623.843V432.138H636.373V419.567Z" fill="#19FF5A"/>
<path d="M686 406.997H673.47V419.567H686V406.997Z" fill="#19FF5A"/>
<path d="M623.843 394.672H611.313V407.243H623.843V394.672Z" fill="#19FF5A"/>
<path d="M673.716 382.101H661.186V406.997H673.716V382.101Z" fill="#19FF5A"/>
<path d="M648.657 394.672H636.127V407.243H648.657V394.672Z" fill="#19FF5A"/>
<path d="M661.186 406.997H648.657V419.567H661.186V406.997Z" fill="#19FF5A"/>
<path d="M611.313 344.882H623.843V332.311H611.313V344.882Z" fill="#19FF5A"/>
<path d="M81.873 47.1254H69.3433V59.6962H81.873V47.1254Z" fill="#19FF5A"/>
<path d="M94.157 59.4497H81.6273V72.0206H94.157V59.4497Z" fill="#19FF5A"/>
<path d="M44.5297 72.0206H32V84.5914H44.5297V72.0206Z" fill="#19FF5A"/>
<path d="M106.687 84.3449H94.157V96.9158H106.687V84.3449Z" fill="#19FF5A"/>
<path d="M57.0594 84.3449H44.5297V109.24H57.0594V84.3449Z" fill="#19FF5A"/>
<path d="M81.873 84.3449H69.3433V96.9158H81.873V84.3449Z" fill="#19FF5A"/>
<path d="M69.3433 72.0206H56.8137V84.5914H69.3433V72.0206Z" fill="#19FF5A"/>
<path d="M106.441 146.706H94.157V159.277H106.441V146.706Z" fill="#19FF5A"/>
<path d="M81.6273 121.811H106.441V109.24H81.6273V121.811Z" fill="#19FF5A"/>
<path d="M636.127 369.777H611.313V382.101H636.127V369.777Z" fill="#19FF5A"/>
<path d="M390.201 32.8291L105.704 288.436V171.601H94.157V159.277H81.6273V121.811H69.3433V109.24H57.0594H56.8137V121.811H44.5297V134.382H69.3433V146.706H56.8137V159.277H69.3433V171.601H56.8137V159.277H44.5297V134.382H32V453.829L316.497 198.222V451.857L612.296 196.25V319.74H623.843V332.311H636.127V369.777H648.657V382.101H661.186V369.777H673.47V357.206H648.657V344.882H661.186V332.311H648.657V319.74H661.186V332.311H673.47V357.206H686V34.801L390.201 290.408V32.8291Z" fill="#19FF5A"/>
</g>
<defs>
<filter id="filter0_d" x="0" y="0.829102" width="718" height="485" filterUnits="userSpaceOnUse" color-interpolation-filters="sRGB">
<feFlood flood-opacity="0" result="BackgroundImageFix"/>
<feColorMatrix in="SourceAlpha" type="matrix" values="0 0 0 0 0 0 0 0 0 0 0 0 0 0 0 0 0 0 127 0"/>
<feOffset/>
<feGaussianBlur stdDeviation="16"/>
<feColorMatrix type="matrix" values="0 0 0 0 0.0980392 0 0 0 0 1 0 0 0 0 0.352941 0 0 0 0.5 0"/>
<feBlend mode="normal" in2="BackgroundImageFix" result="effect1_dropShadow"/>
<feBlend mode="normal" in="SourceGraphic" in2="effect1_dropShadow" result="shape"/>
</filter>
</defs>
</svg>
